<svg width="509" height="78" viewBox="0 0 509 78" fill="none" xmlns="http://www.w3.org/2000/svg">
<path fill-rule="evenodd" clip-rule="evenodd" d="M64.6121 64.9274V64.9704H14.9418V64.9413C12.9464 64.9166 10.9756 64.497 9.14295 63.7069C7.31027 62.9167 5.65192 61.7715 4.26336 60.3373C2.87481 58.9031 1.7835 57.2081 1.05229 55.3501C0.321072 53.492 -0.0356057 51.5075 0.00280279 49.5109C0.0412113 47.5143 0.473952 45.545 1.27608 43.7165C2.07822 41.8879 3.23391 40.2362 4.67659 38.8565C6.11928 37.4768 7.82046 36.3964 9.68217 35.6774C11.5439 34.9584 13.5293 34.6152 15.5242 34.6673C16.142 34.671 16.7591 34.7107 17.3724 34.7861C17.3091 34.1775 17.2771 33.5661 17.2763 32.9542C17.4596 28.117 19.4557 23.5262 22.8677 20.0949C26.2797 16.6636 30.8574 14.6434 35.6901 14.4363C40.5228 14.2291 45.2564 15.8502 48.949 18.9769C52.6417 22.1037 55.0228 26.507 55.6187 31.3108C56.0384 31.267 56.46 31.2446 56.882 31.2438C59.9554 31.2135 62.9218 32.3721 65.162 34.478C67.4022 36.5839 68.743 39.4743 68.9048 42.5458C70.9566 43.4708 72.6998 44.966 73.9271 46.8538C75.1543 48.7415 75.814 50.9422 75.8276 53.1943C75.7914 56.208 74.6133 59.0957 72.5315 61.2737C70.4496 63.4516 67.6191 64.7575 64.6121 64.9274Z" fill="url(#paint0_linear_21_7)"/>
<path d="M100.982 60.256C97.5685 60.256 94.5178 59.488 91.8298 57.952C89.1845 56.3733 87.0938 54.2613 85.5578 51.616C84.0645 48.928 83.3178 45.8987 83.3178 42.528C83.3178 39.072 84.0645 36 85.5578 33.312C87.0511 30.624 89.0991 28.5333 91.7018 27.04C94.3045 25.504 97.2911 24.736 100.662 24.736C103.179 24.736 105.483 25.2267 107.574 26.208C109.664 27.1467 111.542 28.576 113.206 30.496C113.803 31.1787 114.016 31.8827 113.846 32.608C113.675 33.3333 113.206 33.9733 112.438 34.528C111.84 34.9547 111.179 35.104 110.454 34.976C109.728 34.8053 109.067 34.4213 108.47 33.824C106.379 31.6053 103.776 30.496 100.662 30.496C98.4858 30.496 96.5658 31.008 94.9018 32.032C93.2378 33.0133 91.9365 34.4 90.9978 36.192C90.0591 37.984 89.5898 40.096 89.5898 42.528C89.5898 44.832 90.0591 46.88 90.9978 48.672C91.9791 50.464 93.3231 51.8933 95.0298 52.96C96.7365 53.984 98.7205 54.496 100.982 54.496C102.475 54.496 103.776 54.3253 104.886 53.984C106.038 53.6 107.083 53.024 108.022 52.256C108.704 51.7013 109.408 51.4027 110.134 51.36C110.859 51.2747 111.499 51.4667 112.054 51.936C112.779 52.5333 113.184 53.216 113.27 53.984C113.355 54.7093 113.099 55.3707 112.502 55.968C109.43 58.8267 105.59 60.256 100.982 60.256ZM130.587 60C128.71 60 127.046 59.488 125.595 58.464C124.145 57.44 123.014 56.0533 122.203 54.304C121.393 52.512 120.987 50.464 120.987 48.16V13.216C120.987 12.2773 121.286 11.5093 121.883 10.912C122.481 10.3147 123.249 10.016 124.187 10.016C125.126 10.016 125.894 10.3147 126.491 10.912C127.089 11.5093 127.387 12.2773 127.387 13.216V48.16C127.387 49.7387 127.686 51.04 128.283 52.064C128.881 53.088 129.649 53.6 130.587 53.6H132.187C133.041 53.6 133.723 53.8987 134.235 54.496C134.79 55.0933 135.067 55.8613 135.067 56.8C135.067 57.7387 134.662 58.5067 133.851 59.104C133.041 59.7013 131.995 60 130.715 60H130.587ZM154.109 60.256C150.653 60.256 147.603 59.5093 144.957 58.016C142.312 56.48 140.221 54.3893 138.685 51.744C137.192 49.056 136.445 45.984 136.445 42.528C136.445 39.0293 137.192 35.9573 138.685 33.312C140.221 30.624 142.312 28.5333 144.957 27.04C147.603 25.504 150.653 24.736 154.109 24.736C157.523 24.736 160.552 25.504 163.197 27.04C165.843 28.5333 167.912 30.624 169.405 33.312C170.941 35.9573 171.709 39.0293 171.709 42.528C171.709 45.984 170.963 49.056 169.469 51.744C167.976 54.3893 165.907 56.48 163.261 58.016C160.616 59.5093 157.565 60.256 154.109 60.256ZM154.109 54.496C156.328 54.496 158.291 53.984 159.997 52.96C161.704 51.936 163.027 50.528 163.965 48.736C164.947 46.944 165.437 44.8747 165.437 42.528C165.437 40.1813 164.947 38.112 163.965 36.32C163.027 34.4853 161.704 33.056 159.997 32.032C158.291 31.008 156.328 30.496 154.109 30.496C151.891 30.496 149.928 31.008 148.221 32.032C146.515 33.056 145.171 34.4853 144.189 36.32C143.208 38.112 142.717 40.1813 142.717 42.528C142.717 44.8747 143.208 46.944 144.189 48.736C145.171 50.528 146.515 51.936 148.221 52.96C149.928 53.984 151.891 54.496 154.109 54.496ZM194.865 60.32C191.921 60.32 189.275 59.7013 186.929 58.464C184.625 57.184 182.79 55.328 181.425 52.896C180.102 50.464 179.441 47.4773 179.441 43.936V28.192C179.441 27.2533 179.739 26.4853 180.337 25.888C180.977 25.248 181.766 24.928 182.705 24.928C183.643 24.928 184.411 25.248 185.009 25.888C185.649 26.4853 185.969 27.2533 185.969 28.192V43.936C185.969 46.3253 186.417 48.3093 187.313 49.888C188.209 51.424 189.425 52.576 190.961 53.344C192.497 54.0693 194.225 54.432 196.145 54.432C197.979 54.432 199.601 54.0693 201.009 53.344C202.459 52.6187 203.611 51.6373 204.465 50.4C205.318 49.1627 205.745 47.776 205.745 46.24H209.777C209.777 48.8853 209.115 51.2747 207.793 53.408C206.513 55.5413 204.742 57.2267 202.481 58.464C200.262 59.7013 197.723 60.32 194.865 60.32ZM209.009 60C208.07 60 207.281 59.7013 206.641 59.104C206.043 58.464 205.745 57.6747 205.745 56.736V28.192C205.745 27.2107 206.043 26.4213 206.641 25.824C207.281 25.2267 208.07 24.928 209.009 24.928C209.99 24.928 210.779 25.2267 211.377 25.824C211.974 26.4213 212.273 27.2107 212.273 28.192V56.736C212.273 57.6747 211.974 58.464 211.377 59.104C210.779 59.7013 209.99 60 209.009 60ZM238.362 60.256C235.034 60.256 232.026 59.488 229.338 57.952C226.692 56.3733 224.58 54.24 223.002 51.552C221.466 48.864 220.698 45.8347 220.698 42.464C220.698 39.0933 221.402 36.0853 222.81 33.44C224.26 30.752 226.223 28.64 228.698 27.104C231.172 25.5253 233.967 24.736 237.082 24.736C239.599 24.736 241.924 25.2693 244.058 26.336C246.191 27.36 247.983 28.768 249.434 30.56V13.28C249.434 12.2987 249.732 11.5093 250.33 10.912C250.97 10.3147 251.759 10.016 252.698 10.016C253.679 10.016 254.468 10.3147 255.066 10.912C255.663 11.5093 255.962 12.2987 255.962 13.28V42.464C255.962 45.8347 255.172 48.864 253.594 51.552C252.058 54.24 249.967 56.3733 247.322 57.952C244.676 59.488 241.69 60.256 238.362 60.256ZM238.362 54.496C240.538 54.496 242.479 53.984 244.186 52.96C245.892 51.8933 247.236 50.4427 248.218 48.608C249.199 46.7733 249.69 44.7253 249.69 42.464C249.69 40.16 249.199 38.112 248.218 36.32C247.236 34.528 245.892 33.12 244.186 32.096C242.479 31.0293 240.538 30.496 238.362 30.496C236.228 30.496 234.287 31.0293 232.538 32.096C230.831 33.12 229.466 34.528 228.442 36.32C227.46 38.112 226.97 40.16 226.97 42.464C226.97 44.7253 227.46 46.7733 228.442 48.608C229.466 50.4427 230.831 51.8933 232.538 52.96C234.287 53.984 236.228 54.496 238.362 54.496Z" fill="url(#paint1_linear_21_7)"/>
<path d="M269.474 47.264C268.535 47.264 267.746 46.9653 267.106 46.368C266.508 45.728 266.21 44.9387 266.21 44V13.28C266.21 12.2987 266.508 11.5093 267.106 10.912C267.746 10.3147 268.535 10.016 269.474 10.016C270.455 10.016 271.244 10.3147 271.842 10.912C272.439 11.5093 272.738 12.2987 272.738 13.28V44C272.738 44.9387 272.439 45.728 271.842 46.368C271.244 46.9653 270.455 47.264 269.474 47.264ZM295.778 60.064C294.839 60.064 294.05 59.7653 293.41 59.168C292.812 58.528 292.514 57.7387 292.514 56.8V41.056C292.514 38.624 292.066 36.64 291.17 35.104C290.274 33.568 289.058 32.4373 287.522 31.712C286.028 30.944 284.3 30.56 282.338 30.56C280.546 30.56 278.924 30.9227 277.474 31.648C276.023 32.3733 274.871 33.3547 274.018 34.592C273.164 35.7867 272.738 37.1733 272.738 38.752H268.706C268.706 36.064 269.346 33.6747 270.626 31.584C271.948 29.4507 273.74 27.7653 276.002 26.528C278.263 25.2907 280.802 24.672 283.618 24.672C286.562 24.672 289.186 25.312 291.49 26.592C293.836 27.8293 295.671 29.664 296.994 32.096C298.359 34.528 299.042 37.5147 299.042 41.056V56.8C299.042 57.7387 298.722 58.528 298.082 59.168C297.484 59.7653 296.716 60.064 295.778 60.064ZM269.474 60.064C268.535 60.064 267.746 59.7653 267.106 59.168C266.508 58.528 266.21 57.7387 266.21 56.8V28.256C266.21 27.2747 266.508 26.4853 267.106 25.888C267.746 25.2907 268.535 24.992 269.474 24.992C270.455 24.992 271.244 25.2907 271.842 25.888C272.439 26.4853 272.738 27.2747 272.738 28.256V56.8C272.738 57.7387 272.439 58.528 271.842 59.168C271.244 59.7653 270.455 60.064 269.474 60.064ZM324.489 60.256C321.033 60.256 317.983 59.5093 315.337 58.016C312.692 56.48 310.601 54.3893 309.065 51.744C307.572 49.056 306.825 45.984 306.825 42.528C306.825 39.0293 307.572 35.9573 309.065 33.312C310.601 30.624 312.692 28.5333 315.337 27.04C317.983 25.504 321.033 24.736 324.489 24.736C327.903 24.736 330.932 25.504 333.577 27.04C336.223 28.5333 338.292 30.624 339.785 33.312C341.321 35.9573 342.089 39.0293 342.089 42.528C342.089 45.984 341.343 49.056 339.849 51.744C338.356 54.3893 336.287 56.48 333.641 58.016C330.996 59.5093 327.945 60.256 324.489 60.256ZM324.489 54.496C326.708 54.496 328.671 53.984 330.377 52.96C332.084 51.936 333.407 50.528 334.345 48.736C335.327 46.944 335.817 44.8747 335.817 42.528C335.817 40.1813 335.327 38.112 334.345 36.32C333.407 34.4853 332.084 33.056 330.377 32.032C328.671 31.008 326.708 30.496 324.489 30.496C322.271 30.496 320.308 31.008 318.601 32.032C316.895 33.056 315.551 34.4853 314.569 36.32C313.588 38.112 313.097 40.1813 313.097 42.528C313.097 44.8747 313.588 46.944 314.569 48.736C315.551 50.528 316.895 51.936 318.601 52.96C320.308 53.984 322.271 54.496 324.489 54.496ZM363.261 60.256C360.274 60.256 357.501 59.808 354.941 58.912C352.423 57.9733 350.461 56.8 349.053 55.392C348.413 54.7093 348.135 53.9413 348.221 53.088C348.349 52.192 348.775 51.4667 349.501 50.912C350.354 50.2293 351.186 49.952 351.997 50.08C352.85 50.1653 353.575 50.528 354.173 51.168C354.898 51.9787 356.05 52.7467 357.629 53.472C359.25 54.1547 361.042 54.496 363.005 54.496C365.479 54.496 367.357 54.0907 368.637 53.28C369.959 52.4693 370.642 51.424 370.685 50.144C370.727 48.864 370.109 47.7547 368.829 46.816C367.591 45.8773 365.309 45.1093 361.981 44.512C357.671 43.6587 354.535 42.3787 352.573 40.672C350.653 38.9653 349.693 36.8747 349.693 34.4C349.693 32.224 350.333 30.432 351.613 29.024C352.893 27.5733 354.535 26.5067 356.541 25.824C358.546 25.0987 360.637 24.736 362.813 24.736C365.629 24.736 368.125 25.184 370.301 26.08C372.477 26.976 374.205 28.2133 375.485 29.792C376.082 30.4747 376.359 31.2 376.317 31.968C376.274 32.6933 375.911 33.312 375.229 33.824C374.546 34.2933 373.735 34.4427 372.797 34.272C371.858 34.1013 371.069 33.7173 370.429 33.12C369.362 32.096 368.21 31.392 366.973 31.008C365.735 30.624 364.306 30.432 362.685 30.432C360.807 30.432 359.207 30.752 357.885 31.392C356.605 32.032 355.965 32.9707 355.965 34.208C355.965 34.976 356.157 35.68 356.541 36.32C356.967 36.9173 357.778 37.472 358.973 37.984C360.167 38.4533 361.917 38.9227 364.221 39.392C367.421 40.032 369.938 40.8427 371.773 41.824C373.65 42.8053 374.994 43.9573 375.805 45.28C376.615 46.56 377.021 48.0533 377.021 49.76C377.021 51.7227 376.487 53.4933 375.421 55.072C374.397 56.6507 372.861 57.9093 370.813 58.848C368.807 59.7867 366.29 60.256 363.261 60.256ZM396.731 60C394.597 60 392.677 59.4667 390.971 58.4C389.264 57.2907 387.92 55.7973 386.939 53.92C385.957 52.0427 385.467 49.9307 385.467 47.584V17.056C385.467 16.1173 385.765 15.3493 386.363 14.752C386.96 14.1547 387.728 13.856 388.667 13.856C389.605 13.856 390.373 14.1547 390.971 14.752C391.568 15.3493 391.867 16.1173 391.867 17.056V47.584C391.867 49.2907 392.336 50.72 393.275 51.872C394.213 53.024 395.365 53.6 396.731 53.6H398.907C399.675 53.6 400.315 53.8987 400.827 54.496C401.381 55.0933 401.659 55.8613 401.659 56.8C401.659 57.7387 401.296 58.5067 400.571 59.104C399.888 59.7013 398.992 60 397.883 60H396.731ZM382.523 31.776C381.627 31.776 380.901 31.52 380.347 31.008C379.792 30.496 379.515 29.856 379.515 29.088C379.515 28.2347 379.792 27.552 380.347 27.04C380.901 26.528 381.627 26.272 382.523 26.272H397.307C398.203 26.272 398.928 26.528 399.483 27.04C400.037 27.552 400.315 28.2347 400.315 29.088C400.315 29.856 400.037 30.496 399.483 31.008C398.928 31.52 398.203 31.776 397.307 31.776H382.523ZM410.258 61.024C409.064 61.024 408.018 60.5973 407.122 59.744C406.269 58.848 405.842 57.8027 405.842 56.608C405.842 55.3707 406.269 54.3253 407.122 53.472C408.018 52.576 409.064 52.128 410.258 52.128C411.496 52.128 412.541 52.576 413.394 53.472C414.248 54.3253 414.674 55.3707 414.674 56.608C414.674 57.8027 414.248 58.848 413.394 59.744C412.541 60.5973 411.496 61.024 410.258 61.024ZM439.972 60.256C436.644 60.256 433.658 59.488 431.012 57.952C428.367 56.3733 426.276 54.24 424.74 51.552C423.204 48.864 422.415 45.8347 422.372 42.464V13.28C422.372 12.2987 422.671 11.5093 423.268 10.912C423.908 10.3147 424.698 10.016 425.636 10.016C426.618 10.016 427.407 10.3147 428.004 10.912C428.602 11.5093 428.9 12.2987 428.9 13.28V30.56C430.394 28.768 432.186 27.36 434.276 26.336C436.41 25.2693 438.735 24.736 441.252 24.736C444.367 24.736 447.162 25.5253 449.636 27.104C452.111 28.64 454.052 30.752 455.46 33.44C456.911 36.0853 457.636 39.0933 457.636 42.464C457.636 45.8347 456.847 48.864 455.268 51.552C453.732 54.24 451.642 56.3733 448.996 57.952C446.351 59.488 443.343 60.256 439.972 60.256ZM439.972 54.496C442.148 54.496 444.09 53.984 445.796 52.96C447.503 51.8933 448.847 50.4427 449.828 48.608C450.852 46.7733 451.364 44.7253 451.364 42.464C451.364 40.16 450.852 38.112 449.828 36.32C448.847 34.528 447.503 33.12 445.796 32.096C444.09 31.0293 442.148 30.496 439.972 30.496C437.839 30.496 435.898 31.0293 434.148 32.096C432.442 33.12 431.098 34.528 430.116 36.32C429.135 38.112 428.644 40.16 428.644 42.464C428.644 44.7253 429.135 46.7733 430.116 48.608C431.098 50.4427 432.442 51.8933 434.148 52.96C435.898 53.984 437.839 54.496 439.972 54.496ZM480.684 60.256C477.484 60.256 474.647 59.5093 472.172 58.016C469.74 56.48 467.82 54.3893 466.412 51.744C465.004 49.056 464.3 45.984 464.3 42.528C464.3 39.0293 465.047 35.9573 466.54 33.312C468.076 30.624 470.167 28.5333 472.812 27.04C475.458 25.504 478.508 24.736 481.964 24.736C485.378 24.736 488.407 25.504 491.052 27.04C493.698 28.5333 495.767 30.624 497.26 33.312C498.796 35.9573 499.564 39.0293 499.564 42.528H495.788C495.788 45.984 495.127 49.056 493.804 51.744C492.524 54.3893 490.754 56.48 488.492 58.016C486.231 59.5093 483.628 60.256 480.684 60.256ZM481.836 74.528C478.807 74.528 475.97 73.9307 473.324 72.736C470.679 71.5413 468.439 69.792 466.604 67.488C466.05 66.7627 465.836 66.016 465.964 65.248C466.135 64.48 466.562 63.8613 467.244 63.392C468.012 62.88 468.802 62.7093 469.612 62.88C470.466 63.0507 471.148 63.4773 471.66 64.16C472.812 65.6107 474.263 66.7413 476.012 67.552C477.762 68.3627 479.746 68.768 481.964 68.768C484.012 68.768 485.89 68.2773 487.596 67.296C489.346 66.3147 490.732 64.864 491.756 62.944C492.78 61.024 493.292 58.6773 493.292 55.904V46.816L495.404 41.184L499.564 42.528V56.352C499.564 59.7227 498.818 62.7733 497.324 65.504C495.831 68.2773 493.74 70.4747 491.052 72.096C488.407 73.7173 485.335 74.528 481.836 74.528ZM481.964 54.496C484.183 54.496 486.146 53.984 487.852 52.96C489.559 51.936 490.882 50.528 491.82 48.736C492.802 46.944 493.292 44.8747 493.292 42.528C493.292 40.1813 492.802 38.112 491.82 36.32C490.882 34.4853 489.559 33.056 487.852 32.032C486.146 31.008 484.183 30.496 481.964 30.496C479.746 30.496 477.783 31.008 476.076 32.032C474.37 33.056 473.026 34.4853 472.044 36.32C471.063 38.112 470.572 40.1813 470.572 42.528C470.572 44.8747 471.063 46.944 472.044 48.736C473.026 50.528 474.37 51.936 476.076 52.96C477.783 53.984 479.746 54.496 481.964 54.496Z" fill="url(#paint2_linear_21_7)"/>
<defs>
<linearGradient id="paint0_linear_21_7" x1="0.000413201" y1="3.12206" x2="61.3197" y2="86.3691" gradientUnits="userSpaceOnUse">
<stop stop-color="#25AF3F"/>
<stop offset="1" stop-color="#147CBC"/>
</linearGradient>
<linearGradient id="paint1_linear_21_7" x1="79.3498" y1="39" x2="509" y2="39" gradientUnits="userSpaceOnUse">
<stop stop-color="#F7F7F7"/>
<stop offset="1" stop-color="#A6A6A6"/>
</linearGradient>
<linearGradient id="paint2_linear_21_7" x1="79.3521" y1="-17.4303" x2="117.559" y2="173.046" gradientUnits="userSpaceOnUse">
<stop stop-color="#25AF3F"/>
<stop offset="1" stop-color="#147CBC"/>
</linearGradient>
</defs>
</svg>
