<svg width="717" height="113" viewBox="0 0 717 113" fill="none" xmlns="http://www.w3.org/2000/svg">
<path fill-rule="evenodd" clip-rule="evenodd" d="M117.97 107.153V107.231H27.2809V107.178C23.6378 107.133 20.0395 106.368 16.6933 104.926C13.3472 103.485 10.3194 101.395 7.78412 98.7784C5.24887 96.1617 3.25634 93.0693 1.92128 89.6792C0.586218 86.2892 -0.0650095 82.6684 0.00511738 79.0257C0.0752442 75.3829 0.865348 71.7899 2.3299 68.4538C3.79444 65.1176 5.90452 62.1041 8.53859 59.5868C11.1727 57.0696 14.2787 55.0983 17.6778 53.7865C21.077 52.4748 24.702 51.8485 28.3443 51.9436C29.4723 51.9504 30.5991 52.0228 31.7187 52.1604C31.6033 51.0501 31.5447 49.9344 31.5434 48.8181C31.8779 39.9927 35.5226 31.6167 41.7522 25.3564C47.9818 19.096 56.3398 15.4102 65.1635 15.0322C73.9872 14.6543 82.6298 17.6119 89.3719 23.3166C96.114 29.0213 100.461 37.0551 101.549 45.8196C102.316 45.7397 103.086 45.699 103.856 45.6974C109.467 45.6421 114.884 47.7561 118.974 51.5983C123.064 55.4404 125.512 60.714 125.807 66.318C129.554 68.0056 132.736 70.7336 134.977 74.1777C137.218 77.6219 138.422 81.6371 138.447 85.746C138.381 91.2446 136.23 96.5131 132.429 100.487C128.628 104.46 123.46 106.843 117.97 107.153Z" fill="url(#paint0_linear_24_2)"/>
<path fill-rule="evenodd" clip-rule="evenodd" d="M97.897 98.6675V98.7214H35.5861V98.6849C33.0829 98.6539 30.6106 98.128 28.3115 97.1375C26.0125 96.1469 23.9321 94.7114 22.1901 92.9134C20.4482 91.1155 19.0792 88.9908 18.1619 86.6615C17.2446 84.3323 16.7971 81.8446 16.8453 79.3416C16.8935 76.8387 17.4364 74.3701 18.4426 72.0779C19.4489 69.7856 20.8987 67.7151 22.7085 65.9855C24.5184 64.256 26.6525 62.9016 28.988 62.0003C31.3235 61.099 33.8142 60.6686 36.3167 60.734C37.0918 60.7387 37.8659 60.7884 38.6352 60.883C38.5559 60.1201 38.5157 59.3535 38.5148 58.5865C38.7446 52.5227 41.2488 46.7677 45.5291 42.4663C49.8093 38.165 55.552 35.6325 61.6146 35.3728C67.6772 35.1131 73.6154 37.1452 78.2478 41.0648C82.8802 44.9845 85.8673 50.5044 86.6148 56.5263C87.1413 56.4714 87.6702 56.4434 88.1996 56.4424C92.0552 56.4043 95.7765 57.8568 98.5868 60.4967C101.397 63.1366 103.079 66.76 103.282 70.6104C105.856 71.77 108.043 73.6443 109.582 76.0107C111.122 78.3771 111.95 81.136 111.967 83.9591C111.921 87.7371 110.443 91.357 107.832 94.0872C105.22 96.8175 101.669 98.4546 97.897 98.6675Z" fill="white" fill-opacity="0.07"/>
<path d="M177.922 91.5625C174.328 91.5625 170.969 90.9062 167.844 89.5938C164.719 88.2812 161.969 86.4688 159.594 84.1562C157.25 81.8125 155.406 79.0781 154.062 75.9531C152.75 72.7969 152.094 69.3906 152.094 65.7344C152.094 62.0469 152.766 58.6562 154.109 55.5625C155.453 52.4375 157.297 49.7344 159.641 47.4531C161.984 45.1406 164.688 43.3594 167.75 42.1094C170.844 40.8281 174.125 40.1875 177.594 40.1875C180.469 40.1875 183.266 40.625 185.984 41.5C188.703 42.3438 191.094 43.5 193.156 44.9688L189.031 54.0625C188.125 53.2188 187.062 52.5 185.844 51.9062C184.625 51.3125 183.328 50.8594 181.953 50.5469C180.578 50.2031 179.219 50.0312 177.875 50.0312C175 50.0312 172.438 50.7031 170.188 52.0469C167.969 53.3906 166.203 55.2656 164.891 57.6719C163.609 60.0469 162.969 62.7656 162.969 65.8281C162.969 68.8281 163.609 71.5312 164.891 73.9375C166.172 76.3438 167.938 78.25 170.188 79.6562C172.438 81.0312 175.016 81.7188 177.922 81.7188C180.234 81.7188 182.406 81.3281 184.438 80.5469C186.5 79.7344 188.094 78.7969 189.219 77.7344L193.297 86.9688C191.484 88.25 189.25 89.3438 186.594 90.25C183.938 91.125 181.047 91.5625 177.922 91.5625ZM212.75 91.75C210.125 91.75 207.953 91.1875 206.234 90.0625C204.547 88.9375 203.281 87.375 202.438 85.375C201.594 83.375 201.172 81.0625 201.172 78.4375V18.8125H212.234V77.5469C212.234 78.2656 212.312 78.9688 212.469 79.6562C212.625 80.3438 212.938 80.9219 213.406 81.3906C213.906 81.8281 214.688 82.0469 215.75 82.0469C216.188 82.0469 216.578 82.0156 216.922 81.9531C217.297 81.8594 217.625 81.7656 217.906 81.6719V90.9062C217.25 91.1875 216.453 91.3906 215.516 91.5156C214.609 91.6719 213.688 91.75 212.75 91.75ZM248.281 91.75C243.531 91.75 239.266 90.6562 235.484 88.4688C231.703 86.25 228.703 83.2031 226.484 79.3281C224.266 75.4219 223.156 70.9219 223.156 65.8281C223.156 60.7656 224.266 56.3125 226.484 52.4688C228.703 48.625 231.703 45.625 235.484 43.4688C239.266 41.3125 243.531 40.2344 248.281 40.2344C253.094 40.2344 257.391 41.3125 261.172 43.4688C264.953 45.625 267.938 48.625 270.125 52.4688C272.312 56.3125 273.406 60.7656 273.406 65.8281C273.406 70.9219 272.297 75.4219 270.078 79.3281C267.891 83.2031 264.891 86.25 261.078 88.4688C257.297 90.6562 253.031 91.75 248.281 91.75ZM248.281 81.9531C251.031 81.9531 253.484 81.2812 255.641 79.9375C257.797 78.5938 259.484 76.7188 260.703 74.3125C261.953 71.875 262.578 69.0469 262.578 65.8281C262.578 62.6719 261.969 59.9062 260.75 57.5312C259.531 55.1562 257.844 53.3125 255.688 52C253.562 50.6875 251.109 50.0312 248.328 50.0312C245.578 50.0312 243.125 50.6875 240.969 52C238.812 53.3125 237.109 55.1562 235.859 57.5312C234.641 59.9062 234.031 62.6719 234.031 65.8281C234.031 69.0469 234.641 71.875 235.859 74.3125C237.109 76.7188 238.797 78.5938 240.922 79.9375C243.078 81.2812 245.531 81.9531 248.281 81.9531ZM300.734 91.75C297.141 91.75 293.938 90.9844 291.125 89.4531C288.312 87.9219 286.094 85.7031 284.469 82.7969C282.875 79.8594 282.078 76.2969 282.078 72.1094V40.9844H293.141V70.9844C293.141 74.6406 294.125 77.3906 296.094 79.2344C298.062 81.0781 300.438 82 303.219 82C305.375 82 307.25 81.5312 308.844 80.5938C310.469 79.625 311.734 78.3125 312.641 76.6562C313.578 75 314.047 73.1094 314.047 70.9844V40.9844H325.109V75.3438C325.109 77.3438 325.375 78.8281 325.906 79.7969C326.438 80.7656 327.516 81.5625 329.141 82.1875L325.062 91.75C322.156 90.7188 319.922 89.4062 318.359 87.8125C316.797 86.1875 316.016 84.375 316.016 82.375L319.531 84.8125H313.25L318.641 81.3438C317.047 84.2188 314.75 86.6719 311.75 88.7031C308.75 90.7344 305.078 91.75 300.734 91.75ZM382.719 91.75C380.625 90.9375 378.891 90.0781 377.516 89.1719C376.172 88.2344 375.141 87.2188 374.422 86.125C373.734 85 373.312 83.7656 373.156 82.4219L374.984 83.4062H370.484L372.828 77.6875V51.25L370.484 46.1875H371.656V18.8125H382.719V75.5781C382.719 77.5469 383 78.9844 383.562 79.8906C384.125 80.7656 385.188 81.5312 386.75 82.1875L382.719 91.75ZM356.562 91.75C353.688 91.75 350.906 91.1875 348.219 90.0625C345.562 88.9062 343.172 87.2344 341.047 85.0469C338.953 82.8594 337.297 80.1719 336.078 76.9844C334.891 73.7656 334.312 70.1094 334.344 66.0156C334.281 60.5156 335.297 55.8438 337.391 52C339.516 48.1562 342.297 45.2188 345.734 43.1875C349.172 41.1562 352.844 40.1406 356.75 40.1406C360.969 40.1406 364.703 41.25 367.953 43.4688C371.234 45.6875 373.797 48.7344 375.641 52.6094C377.516 56.4531 378.469 60.8281 378.5 65.7344C378.469 70.6406 377.5 75.0625 375.594 79C373.688 82.9375 371.078 86.0469 367.766 88.3281C364.484 90.6094 360.75 91.75 356.562 91.75ZM358.859 82.1875C361.484 82.1875 363.812 81.4844 365.844 80.0781C367.875 78.6719 369.469 76.75 370.625 74.3125C371.781 71.8438 372.375 69.0312 372.406 65.875C372.375 62.5 371.766 59.6094 370.578 57.2031C369.391 54.7969 367.781 52.9531 365.75 51.6719C363.719 50.3594 361.469 49.7188 359 49.75C356.344 49.7188 353.969 50.375 351.875 51.7188C349.812 53.0625 348.203 54.9531 347.047 57.3906C345.891 59.7969 345.328 62.625 345.359 65.875C345.328 69.0312 345.875 71.8438 347 74.3125C348.156 76.75 349.766 78.6719 351.828 80.0781C353.891 81.4844 356.234 82.1875 358.859 82.1875Z" fill="white"/>
<path d="M395.703 91V18.8125H406.766V46.2344H409.016L404.75 50.5469C405.438 48.3281 406.609 46.4531 408.266 44.9219C409.953 43.3594 411.938 42.1875 414.219 41.4062C416.531 40.625 418.984 40.2344 421.578 40.2344C425.609 40.2344 428.906 41.1094 431.469 42.8594C434.062 44.5781 435.969 46.8281 437.188 49.6094C438.406 52.3906 439.016 55.3906 439.016 58.6094V91H427.953V60.9531C427.953 57.2656 427.016 54.5 425.141 52.6562C423.297 50.7812 420.844 49.8438 417.781 49.8438C415.719 49.8438 413.859 50.2656 412.203 51.1094C410.578 51.9531 409.266 53.2031 408.266 54.8594C407.266 56.5156 406.766 58.5781 406.766 61.0469V91H395.703ZM472.25 91.75C467.5 91.75 463.234 90.6562 459.453 88.4688C455.672 86.25 452.672 83.2031 450.453 79.3281C448.234 75.4219 447.125 70.9219 447.125 65.8281C447.125 60.7656 448.234 56.3125 450.453 52.4688C452.672 48.625 455.672 45.625 459.453 43.4688C463.234 41.3125 467.5 40.2344 472.25 40.2344C477.062 40.2344 481.359 41.3125 485.141 43.4688C488.922 45.625 491.906 48.625 494.094 52.4688C496.281 56.3125 497.375 60.7656 497.375 65.8281C497.375 70.9219 496.266 75.4219 494.047 79.3281C491.859 83.2031 488.859 86.25 485.047 88.4688C481.266 90.6562 477 91.75 472.25 91.75ZM472.25 81.9531C475 81.9531 477.453 81.2812 479.609 79.9375C481.766 78.5938 483.453 76.7188 484.672 74.3125C485.922 71.875 486.547 69.0469 486.547 65.8281C486.547 62.6719 485.938 59.9062 484.719 57.5312C483.5 55.1562 481.812 53.3125 479.656 52C477.531 50.6875 475.078 50.0312 472.297 50.0312C469.547 50.0312 467.094 50.6875 464.938 52C462.781 53.3125 461.078 55.1562 459.828 57.5312C458.609 59.9062 458 62.6719 458 65.8281C458 69.0469 458.609 71.875 459.828 74.3125C461.078 76.7188 462.766 78.5938 464.891 79.9375C467.047 81.2812 469.5 81.9531 472.25 81.9531ZM521.891 91.75C518.891 91.75 516.109 91.2031 513.547 90.1094C510.984 89.0156 508.781 87.5625 506.938 85.75C505.125 83.9062 503.812 81.9062 503 79.75L512.375 75.7188C513.062 77.4688 514.266 79.0312 515.984 80.4062C517.734 81.7812 519.703 82.4688 521.891 82.4688C523.234 82.4688 524.469 82.2188 525.594 81.7188C526.719 81.1875 527.625 80.4844 528.312 79.6094C529 78.7344 529.344 77.7656 529.344 76.7031C529.344 75.5156 528.938 74.5 528.125 73.6562C527.344 72.7812 526.344 72.0469 525.125 71.4531C523.938 70.8594 522.688 70.3594 521.375 69.9531C520.094 69.5469 518.969 69.1875 518 68.875C515.875 68.2188 513.766 67.3125 511.672 66.1562C509.609 65 507.891 63.4844 506.516 61.6094C505.141 59.7031 504.453 57.3125 504.453 54.4375C504.453 51.5312 505.203 49.0156 506.703 46.8906C508.203 44.7344 510.203 43.0938 512.703 41.9688C515.203 40.8125 517.969 40.2344 521 40.2344C525.188 40.2344 528.797 41.25 531.828 43.2812C534.859 45.2812 537 47.6875 538.25 50.5L529.062 54.3438C528.438 53.1875 527.5 52.0625 526.25 50.9688C525 49.875 523.344 49.3281 521.281 49.3281C519.5 49.3281 517.969 49.7969 516.688 50.7344C515.438 51.6406 514.812 52.9219 514.812 54.5781C514.812 55.9844 515.266 57.125 516.172 58C517.109 58.8438 518.344 59.5625 519.875 60.1562C521.406 60.7188 523.062 61.2969 524.844 61.8906C526.156 62.2969 527.641 62.8438 529.297 63.5312C530.984 64.1875 532.609 65.0625 534.172 66.1562C535.766 67.25 537.062 68.6406 538.062 70.3281C539.094 71.9844 539.609 74.0156 539.609 76.4219C539.609 79.4219 538.797 82.0781 537.172 84.3906C535.547 86.7031 533.391 88.5156 530.703 89.8281C528.016 91.1094 525.078 91.75 521.891 91.75ZM568.484 91.75C563.172 91.75 559.156 90.25 556.438 87.25C553.75 84.25 552.406 80.4062 552.406 75.7188V25.6094H563.469V74.9219C563.469 77.3281 564.031 79.0938 565.156 80.2188C566.281 81.3438 567.688 81.9062 569.375 81.9062C570.125 81.9062 570.828 81.8125 571.484 81.625C572.141 81.4062 572.734 81.1562 573.266 80.875L577.062 89.9219C575.906 90.4844 574.609 90.9219 573.172 91.2344C571.734 91.5781 570.172 91.75 568.484 91.75ZM544.156 50.2188V40.9844H575.469V50.2188H544.156ZM590.328 91.75C588.297 91.75 586.562 91.0469 585.125 89.6406C583.719 88.2031 583.016 86.4688 583.016 84.4375C583.016 82.4062 583.719 80.6875 585.125 79.2812C586.562 77.875 588.297 77.1719 590.328 77.1719C592.359 77.1719 594.078 77.875 595.484 79.2812C596.891 80.6875 597.594 82.4062 597.594 84.4375C597.594 86.4688 596.891 88.2031 595.484 89.6406C594.078 91.0469 592.359 91.75 590.328 91.75ZM607.016 91V18.8125H618.078V46.375H619.016L616.953 52.75V79.7969L619.484 84.7188H617.75V91H607.016ZM633.312 91.75C629.125 91.75 625.375 90.6094 622.062 88.3281C618.781 86.0469 616.188 82.9375 614.281 79C612.375 75.0625 611.406 70.6406 611.375 65.7344C611.406 60.8281 612.344 56.4531 614.188 52.6094C616.062 48.7344 618.625 45.6875 621.875 43.4688C625.156 41.25 628.906 40.1406 633.125 40.1406C637.031 40.1406 640.703 41.1562 644.141 43.1875C647.578 45.2188 650.344 48.1562 652.438 52C654.562 55.8438 655.594 60.5156 655.531 66.0156C655.562 70.1094 654.969 73.7656 653.75 76.9844C652.531 80.1719 650.875 82.8594 648.781 85.0469C646.688 87.2344 644.297 88.9062 641.609 90.0625C638.953 91.1875 636.188 91.75 633.312 91.75ZM631.016 82.1875C633.641 82.1875 635.984 81.4844 638.047 80.0781C640.109 78.6719 641.703 76.75 642.828 74.3125C643.984 71.8438 644.547 69.0312 644.516 65.875C644.547 62.625 643.984 59.7969 642.828 57.3906C641.672 54.9531 640.047 53.0625 637.953 51.7188C635.891 50.375 633.531 49.7188 630.875 49.75C628.375 49.7188 626.109 50.3594 624.078 51.6719C622.078 52.9531 620.469 54.7969 619.25 57.2031C618.062 59.6094 617.469 62.5 617.469 65.875C617.469 69.0312 618.047 71.8438 619.203 74.3125C620.391 76.75 622 78.6719 624.031 80.0781C626.062 81.4844 628.391 82.1875 631.016 82.1875ZM685.438 111.438C681.562 111.438 677.938 110.938 674.562 109.938C671.219 108.938 668.562 107.875 666.594 106.75L670.484 97.5625C672.047 98.6562 674.109 99.6406 676.672 100.516C679.234 101.391 681.844 101.828 684.5 101.828C686.75 101.828 689.047 101.422 691.391 100.609C693.766 99.7969 695.766 98.4844 697.391 96.6719C699.016 94.8594 699.828 92.4531 699.828 89.4531V83.7812H698.328L700.25 79.1406V51.5312L697.391 46.5156H699.922V40.9844H710.422V88.8438C710.422 92.7188 709.75 96.0625 708.406 98.875C707.094 101.719 705.281 104.062 702.969 105.906C700.656 107.781 697.984 109.172 694.953 110.078C691.953 110.984 688.781 111.438 685.438 111.438ZM684.406 90.7188C681.531 90.7188 678.766 90.1562 676.109 89.0312C673.453 87.9062 671.062 86.2656 668.938 84.1094C666.812 81.9531 665.125 79.3125 663.875 76.1875C662.656 73.0312 662.047 69.4375 662.047 65.4062C662.047 60.0312 663.125 55.4688 665.281 51.7188C667.469 47.9688 670.297 45.125 673.766 43.1875C677.234 41.2188 680.922 40.2344 684.828 40.2344C689.078 40.2344 692.812 41.3125 696.031 43.4688C699.281 45.625 701.812 48.5781 703.625 52.3281C705.438 56.0469 706.344 60.25 706.344 64.9375C706.344 69.75 705.391 74.1094 703.484 78.0156C701.578 81.8906 698.969 84.9844 695.656 87.2969C692.375 89.5781 688.625 90.7188 684.406 90.7188ZM686.703 81.1562C689.297 81.1562 691.609 80.4844 693.641 79.1406C695.672 77.7656 697.266 75.875 698.422 73.4688C699.578 71.0625 700.156 68.2969 700.156 65.1719C700.156 62.0156 699.578 59.2812 698.422 56.9688C697.266 54.6562 695.672 52.875 693.641 51.625C691.641 50.3438 689.344 49.7031 686.75 49.7031C684.094 49.7031 681.734 50.3594 679.672 51.6719C677.609 52.9531 676 54.7656 674.844 57.1094C673.688 59.4219 673.109 62.125 673.109 65.2188C673.109 68.3125 673.688 71.0625 674.844 73.4688C676 75.8438 677.594 77.7188 679.625 79.0938C681.688 80.4688 684.047 81.1562 686.703 81.1562Z" fill="url(#paint1_linear_24_2)"/>
<defs>
<linearGradient id="paint0_linear_24_2" x1="0.00075443" y1="-5.61052" x2="111.853" y2="146.351" gradientUnits="userSpaceOnUse">
<stop stop-color="#25AF3F"/>
<stop offset="1" stop-color="#147CBC"/>
</linearGradient>
<linearGradient id="paint1_linear_24_2" x1="149.003" y1="-25.2516" x2="209.192" y2="248.567" gradientUnits="userSpaceOnUse">
<stop stop-color="#25AF3F"/>
<stop offset="1" stop-color="#147CBC"/>
</linearGradient>
</defs>
</svg>
